<svg width="24" height="24" viewBox="0 0 24 24" fill="none" xmlns="http://www.w3.org/2000/svg">
<g id="basic/plus">
<path id="Union" fill-rule="evenodd" clip-rule="evenodd" d="M13.2429 5.75C13.2429 5.33579 12.9071 5 12.4929 5C12.0786 5 11.7429 5.33579 11.7429 5.75V11.7429H5.75C5.33579 11.7429 5 12.0786 5 12.4929C5 12.9071 5.33579 13.2429 5.75 13.2429H11.7429V19.2357C11.7429 19.6499 12.0786 19.9857 12.4929 19.9857C12.9071 19.9857 13.2429 19.6499 13.2429 19.2357V13.2429H19.2357C19.6499 13.2429 19.9857 12.9071 19.9857 12.4929C19.9857 12.0786 19.6499 11.7429 19.2357 11.7429H13.2429V5.75Z" fill="white"/>
</g>
</svg>
